Coordinates
version=1
nRows=32
nColumns=22
inDegrees=yes

Units are S.I. units (second, meters, Newtons, ...)
If the header above contains a line with 'inDegrees', this indicates whether rotational values are in degrees (yes) or radians (no).

endheader
time	pelvis_tilt	pelvis_list	pelvis_rotation	pelvis_tx	pelvis_ty	pelvis_tz	hip_flexion_r	hip_adduction_r	hip_rotation_r	knee_angle_r	ankle_angle_r	subtalar_angle_r	hip_flexion_l	hip_adduction_l	hip_rotation_l	knee_angle_l	ankle_angle_l	subtalar_angle_l	lumbar_extension	lumbar_bending	lumbar_rotation
      2.15000000	      0.12174294	      1.04099692	    163.96479542	     -0.08228810	      0.99913709	      0.70051620	     -6.60171547	      6.86811019	     19.95768423	    -23.48444424	     14.07899230	     -2.62278771	     19.35062454	      0.60361852	     12.83473277	    -17.27040008	      1.12062382	      6.09639216	    -13.55161840	      0.31764358	      5.27009542
      2.16000000	     -0.02555171	      0.94783667	    163.80930897	     -0.08885794	      1.00000616	      0.69945052	     -6.75819285	      6.73176788	     19.93241442	    -24.09344624	     13.53440357	     -2.00339581	     19.02373334	      0.79374976	     12.66119760	    -17.70207914	      1.54382406	      5.82099561	    -13.49389689	      0.20292349	      4.92133726
      2.17000000	     -0.17761131	      0.88549462	    163.64852151	     -0.09548837	      1.00097613	      0.69838190	     -6.91157733	      6.61306032	     19.88745764	    -24.71398305	     12.91757829	     -1.30950198	     18.63583149	      0.95352883	     12.52091201	    -18.06333097	      2.00311255	      5.53121413	    -13.44493674	      0.12556012	      4.61582161
      2.18000000	     -0.32387896	      0.85973537	    163.47179990	     -0.10215629	      1.00200948	      0.69729774	     -7.05047423	      6.51801474	     19.82464263	    -25.34694358	     12.22683685	     -0.54920527	     18.19823165	      1.06930820	     12.38306961	    -18.35356865	      2.47789785	      5.22225391	    -13.39685818	      0.09398937	      4.36554648
      2.19000000	     -0.45361778	      0.87163578	    163.26682664	     -0.10883113	      1.00307512	      0.69617381	     -7.15994209	      6.45000766	     19.75325852	    -25.99695847	     11.45723450	      0.26067404	     17.72005882	      1.13046053	     12.22739881	    -18.56572550	      2.95969696	      4.90007715	    -13.34021040	      0.10960889	      4.18150076
      2.20000000	     -0.56468601	      0.90012419	    163.02365970	     -0.11548825	      1.00414497	      0.69497818	     -7.22511197	      6.38795449	     19.67325508	    -26.67455273	     10.62747203	      1.13879806	     17.21300638	      1.15263242	     12.02768523	    -18.70308187	      3.42661056	      4.56237199	    -13.26777127	      0.14358766	      4.05063712
      2.21000000	     -0.65162303	      0.95199248	    162.73422533	     -0.12208752	      1.00519572	      0.69368886	     -7.23001598	      6.34281770	     19.58273526	    -27.39767267	      9.73995819	      2.05381168	     16.68441181	      1.12364820	     11.77610220	    -18.76869634	      3.88736527	      4.23251225	    -13.17970440	      0.20325800	      3.98252830
      2.22000000	     -0.70423631	      1.04459935	    162.39144521	     -0.12856773	      1.00620841	      0.69229441	     -7.15674510	      6.34021852	     19.49129718	    -28.18416037	      8.77101818	      2.92639872	     16.15476647	      1.02105828	     11.46189724	    -18.78532447	      4.32421788	      3.94753466	    -13.08063714	      0.31060816	      3.99825516
      2.23000000	     -0.75284945	      1.09239180	    162.01987698	     -0.13496961	      1.00715883	      0.69081864	     -7.00028104	      6.28207308	     19.35126917	    -29.05721385	      7.82546433	      4.00283675	     15.61755987	      0.95178925	     11.11219368	    -18.75329020	      4.76877140	      3.63634460	    -12.97016157	      0.35927780	      3.99855443
      2.24000000	     -0.76810780	      1.16707581	    161.59829511	     -0.14119405	      1.00802888	      0.68921849	     -6.73905718	      6.25932704	     19.19825161	    -30.02974440	      6.82944478	      5.05335911	     15.10262097	      0.82584660	     10.70368508	    -18.70634694	      5.19921459	      3.38362454	    -12.85425690	      0.43545967	      4.05784995
      2.25000000	     -0.76690963	      1.23586593	    161.13535251	     -0.14720765	      1.00879984	      0.68751737	     -6.36358983	      6.23756771	     19.02622995	    -31.13087062	      5.83947997	      6.16453056	     14.61729874	      0.68962897	     10.25665619	    -18.67007633	      5.63531027	      3.16266449	    -12.74762575	      0.49625699	      4.14485457
      2.26000000	     -0.74471221	      1.28209064	    160.64900296	     -0.15305680	      1.00945598	      0.68574019	     -5.86172445	      6.19106138	     18.77404331	    -32.35447449	      4.90605892	      7.43430119	     14.15987421	      0.56057883	      9.77328841	    -18.61711857	      6.05723377	      2.96480506	    -12.62992844	      0.53154602	      4.21407452
      2.27000000	     -0.71038129	      1.30229348	    160.13641888	     -0.15867852	      1.00998202	      0.68390869	     -5.22494572	      6.12047859	     18.46748804	    -33.72644496	      4.06323879	      8.81694812	     13.74419860	      0.45031613	      9.26467272	    -18.58574819	      6.47376026	      2.79488827	    -12.52221890	      0.53525413	      4.27753925
      2.28000000	     -0.66250323	      1.28717834	    159.59896948	     -0.16407021	      1.01035615	      0.68204548	     -4.44201765	      6.00961999	     18.08574562	    -35.24995632	      3.37746594	     10.34327670	     13.37850217	      0.36957596	      8.73283275	    -18.57889227	      6.88880733	      2.63916421	    -12.41938829	      0.49961350	      4.32736986
      2.29000000	     -0.60534956	      1.22776600	    159.04255792	     -0.16922358	      1.01056714	      0.68018178	     -3.50983426	      5.84268752	     17.61639212	    -36.92114652	      2.90354172	     11.98844502	     13.06840684	      0.33292131	      8.19209216	    -18.60660447	      7.29656686	      2.48886690	    -12.32420410	      0.41618205	      4.35537956
      2.30000000	     -0.54516947	      1.12000140	    158.47474889	     -0.17417821	      1.01063191	      0.67837280	     -2.44129578	      5.60036329	     17.04665516	    -38.71111867	      2.65586038	     13.70174543	     12.80198315	      0.35058915	      7.64674317	    -18.65132773	      7.68803981	      2.33867493	    -12.23740572	      0.29049316	      4.34218195
      2.31000000	     -0.48879990	      0.95930567	    157.88609606	     -0.17892072	      1.01055315	      0.67661092	     -1.24541801	      5.26939601	     16.38863355	    -40.59618895	      2.65758499	     15.34562494	     12.58073341	      0.42842069	      7.09684421	    -18.72633678	      8.06284008	      2.17938853	    -12.16462632	      0.11020396	      4.30495643
      2.32000000	     -0.45103566	      0.75058487	    157.28179620	     -0.18350891	      1.01037922	      0.67492268	      0.03906418	      4.83893197	     15.65024841	    -42.52001136	      2.88102234	     16.73213691	     12.37739434	      0.56865415	      6.53687628	    -18.81110318	      8.41464569	      2.01085432	    -12.11471075	     -0.11598751	      4.23314003
      2.33000000	     -0.44851321	      0.50614873	    156.66107098	     -0.18796704	      1.01017240	      0.67330064	      1.36904714	      4.31190438	     14.85713459	    -44.42650861	      3.27762897	     17.70483254	     12.16439801	      0.76631433	      5.97655592	    -18.89308644	      8.73886915	      1.83629855	    -12.10490361	     -0.38444308	      4.13427167
      2.34000000	     -0.48525398	      0.24685102	    156.03097569	     -0.19233518	      1.00997853	      0.67173070	      2.70416100	      3.71069584	     14.03351195	    -46.25453293	      3.80405949	     18.14791913	     11.92281335	      1.00320926	      5.42116367	    -18.96179830	      9.04227577	      1.65912053	    -12.13906518	     -0.67256792	      4.00809471
      2.35000000	     -0.55152207	     -0.00664280	    155.40026158	     -0.19662967	      1.00983181	      0.67019905	      4.02288347	      3.06722677	     13.19657109	    -47.95289926	      4.40291499	     18.04413590	     11.65522161	      1.25489423	      4.87182285	    -19.01792885	      9.31206814	      1.48168312	    -12.21018732	     -0.95564904	      3.85067323
      2.36000000	     -0.61746851	     -0.23940553	    154.78314952	     -0.20086296	      1.00971720	      0.66869800	      5.32882120	      2.42251530	     12.35751527	    -49.48550504	      5.02306336	     17.41306080	     11.38869058	      1.49586313	      4.34674672	    -19.06987456	      9.57256879	      1.29188030	    -12.28744680	     -1.20384964	      3.66056707
      2.37000000	     -0.69520997	     -0.43047604	    154.18347827	     -0.20506214	      1.00969655	      0.66718715	      6.57814663	      1.80423938	     11.52422822	    -50.81643597	      5.61421799	     16.32557355	     11.09172765	      1.70889929	      3.84590318	    -19.10510905	      9.81074165	      1.10521596	    -12.38825257	     -1.40506304	      3.44656277
      2.38000000	     -0.77668474	     -0.55903574	    153.60783914	     -0.20923376	      1.00978764	      0.66564840	      7.75146051	      1.24740416	     10.69758670	    -51.92250799	      6.15543509	     14.94764506	     10.75929512	      1.87045350	      3.38276961	    -19.12221105	     10.05368504	      0.92769174	    -12.51340314	     -1.53583251	      3.21275978
      2.39000000	     -0.85265801	     -0.64170180	    153.05687540	     -0.21337660	      1.00996767	      0.66407074	      8.86507104	      0.74576403	      9.86902069	    -52.81115897	      6.61580440	     13.46942044	     10.40836953	      1.99038419	      2.94031667	    -19.12435758	     10.26402617	      0.76039512	    -12.64368197	     -1.61365877	      2.96039777
      2.40000000	     -0.91591507	     -0.67415884	    152.53468626	     -0.21748284	      1.01022417	      0.66245290	      9.91806308	      0.31102790	      9.02570653	    -53.48252926	      7.01319815	     11.97923142	     10.04429793	      2.06151383	      2.53044035	    -19.11622211	     10.47175519	      0.60146403	    -12.77909344	     -1.63063368	      2.69664339
      2.41000000	     -0.96649299	     -0.67655780	    152.03723173	     -0.22155298	      1.01053229	      0.66078744	     10.92228176	     -0.07717202	      8.15549069	    -53.95068183	      7.37419159	     10.57056369	      9.67411940	      2.10185407	      2.14290526	    -19.09583680	     10.65624879	      0.45160255	    -12.90949869	     -1.61207501	      2.42979900
      2.42000000	     -1.00047479	     -0.64363012	    151.55983724	     -0.22559812	      1.01087797	      0.65904759	     11.87168986	     -0.40572465	      7.26134886	    -54.21445222	      7.71219473	      9.25596097	      9.29154438	      2.10082485	      1.76714057	    -19.05458319	     10.85753847	      0.30776039	    -13.03245165	     -1.55015928	      2.13882972
      2.43000000	     -1.02456794	     -0.59747312	    151.09350859	     -0.22959115	      1.01123520	      0.65723761	     12.78136925	     -0.70313952	      6.33421096	    -54.29672630	      8.04809301	      8.05591361	      8.90353360	      2.08239487	      1.39932484	    -18.99674257	     11.04126007	      0.17048134	    -13.15169238	     -1.47647888	      1.85492257
      2.44000000	     -1.04140684	     -0.53968730	    150.62905418	     -0.23353775	      1.01158762	      0.65534465	     13.64869698	     -0.97015704	      5.37776314	    -54.20409321	      8.39068837	      6.96422813	      8.50607039	      2.04751760	      1.02793325	    -18.92208341	     11.22565891	      0.03813379	    -13.26839179	     -1.39399908	      1.58098090
      2.45000000	     -1.04757047	     -0.47857803	    150.15851932	     -0.23742245	      1.01191407	      0.65335155	     14.48191465	     -1.20844520	      4.40207341	    -53.94520899	      8.77017287	      6.01117443	      8.09621739	      2.00253394	      0.66619817	    -18.81019883	     11.41340891	     -0.08441391	    -13.37655062	     -1.31383432	      1.32980662
      2.46000000	     -1.05267690	     -0.40462545	    149.67089267	     -0.24122826	      1.01222068	      0.65123852	     15.27505719	     -1.41235908	      3.40477143	    -53.53569642	      9.07139137	      5.14459871	      7.67765385	      1.93461485	      0.23611404	    -18.69551408	     11.59590535	     -0.20916997	    -13.49670036	     -1.23149123	      1.08467092
